# xmcd
#
# Track frame offsets:
#	150
#	19219
#	47832
#	66592
#
# Disc length: 1076 seconds
#
# Revision: 1
# Processed by: cddbd v1.5.2PL0 Copyright (c) Steve Scherf et al.
# Submitted via: audiograbber 1.83.01
#
DISCID=36043204
DTITLE=Mark Templeton - Ballads
DYEAR=2010
DGENRE=Electronic
TTITLE0=February 23rd
TTITLE1=Broken And Remade
TTITLE2=Horizon
TTITLE3=Drowning In Memories
EXTD=
EXTT0=
EXTT1=
EXTT2=
EXTT3=
PLAYORDER=
